<svg width="134" height="64" viewBox="0 0 134 64" fill="none" xmlns="http://www.w3.org/2000/svg">
<path d="M125.118 27.6799C123.037 27.6799 121.244 27.3091 119.737 26.5677C118.254 25.8023 117.106 24.738 116.293 23.3747C115.503 21.9874 115.109 20.361 115.109 18.4954C115.109 16.6777 115.491 15.0872 116.257 13.7239C117.022 12.3366 118.086 11.2603 119.45 10.495C120.837 9.70568 122.404 9.31104 124.15 9.31104C125.417 9.31104 126.565 9.5263 127.594 9.95682C128.622 10.3634 129.507 10.9614 130.249 11.7506C130.99 12.516 131.552 13.4608 131.935 14.5849C132.317 15.6851 132.509 16.9169 132.509 18.2802C132.509 18.7346 132.365 19.0814 132.078 19.3206C131.791 19.5359 131.373 19.6435 130.823 19.6435H119.557V16.8451H128.598L128.024 17.3474C128.024 16.3668 127.881 15.5536 127.594 14.9078C127.307 14.2381 126.888 13.7358 126.338 13.401C125.812 13.0661 125.154 12.8987 124.365 12.8987C123.48 12.8987 122.726 13.102 122.105 13.5086C121.483 13.9152 121.004 14.5012 120.67 15.2666C120.335 16.0319 120.167 16.9528 120.167 18.0291V18.3161C120.167 20.1338 120.586 21.4732 121.423 22.3342C122.284 23.1953 123.552 23.6258 125.226 23.6258C125.8 23.6258 126.458 23.554 127.199 23.4105C127.941 23.267 128.634 23.0398 129.28 22.7289C129.83 22.4658 130.32 22.3821 130.751 22.4778C131.181 22.5495 131.516 22.7408 131.755 23.0518C131.995 23.3627 132.126 23.7215 132.15 24.1281C132.198 24.5347 132.114 24.9413 131.899 25.3479C131.684 25.7306 131.325 26.0535 130.823 26.3165C130.009 26.771 129.089 27.1058 128.06 27.3211C127.056 27.5603 126.075 27.6799 125.118 27.6799Z" fill="currentColor"/>
<path d="M86.8856 27.6081C86.0006 27.6081 85.3189 27.3689 84.8406 26.8906C84.3862 26.4122 84.1589 25.7306 84.1589 24.8456V12.1094C84.1589 11.2245 84.3862 10.5548 84.8406 10.1003C85.3189 9.62197 85.9767 9.38279 86.8138 9.38279C87.6748 9.38279 88.3326 9.62197 88.787 10.1003C89.2415 10.5548 89.4687 11.2245 89.4687 12.1094V14.4055L89.074 12.9705C89.5524 11.8702 90.2938 10.9853 91.2984 10.3156C92.3029 9.64588 93.4869 9.31104 94.8502 9.31104C96.2135 9.31104 97.3496 9.63392 98.2584 10.2797C99.1673 10.9255 99.8131 11.9181 100.196 13.2575H99.6935C100.22 12.0377 101.021 11.0809 102.097 10.3873C103.197 9.6698 104.453 9.31104 105.864 9.31104C107.228 9.31104 108.34 9.58609 109.201 10.1362C110.086 10.6624 110.744 11.4756 111.174 12.5758C111.605 13.6521 111.82 15.0274 111.82 16.7016V24.8456C111.82 25.7306 111.581 26.4122 111.102 26.8906C110.648 27.3689 109.99 27.6081 109.129 27.6081C108.244 27.6081 107.562 27.3689 107.084 26.8906C106.63 26.4122 106.402 25.7306 106.402 24.8456V16.881C106.402 15.709 106.211 14.86 105.828 14.3338C105.47 13.7837 104.848 13.5086 103.963 13.5086C102.934 13.5086 102.133 13.8674 101.559 14.5849C100.985 15.3024 100.698 16.3189 100.698 17.6344V24.8456C100.698 25.7306 100.459 26.4122 99.9805 26.8906C99.5261 27.3689 98.8684 27.6081 98.0073 27.6081C97.1463 27.6081 96.4766 27.3689 95.9982 26.8906C95.5199 26.4122 95.2807 25.7306 95.2807 24.8456V16.881C95.2807 15.709 95.0893 14.86 94.7067 14.3338C94.3479 13.7837 93.726 13.5086 92.8411 13.5086C91.8126 13.5086 91.0114 13.8674 90.4373 14.5849C89.8633 15.3024 89.5763 16.3189 89.5763 17.6344V24.8456C89.5763 26.6873 88.6794 27.6081 86.8856 27.6081Z" fill="currentColor"/>
<path d="M69.4192 27.6798C67.9363 27.6798 66.7046 27.4048 65.7239 26.8547C64.7433 26.3046 64.0138 25.4794 63.5355 24.3792C63.081 23.255 62.8538 21.8678 62.8538 20.2175V12.1094C62.8538 11.2005 63.081 10.5188 63.5355 10.0644C64.0138 9.60997 64.6835 9.38275 65.5446 9.38275C66.4056 9.38275 67.0753 9.60997 67.5537 10.0644C68.032 10.5188 68.2712 11.2005 68.2712 12.1094V20.361C68.2712 21.4134 68.4864 22.2027 68.917 22.7289C69.3475 23.2311 70.0291 23.4823 70.9619 23.4823C71.9904 23.4823 72.8275 23.1235 73.4733 22.406C74.143 21.6645 74.4778 20.6958 74.4778 19.5V12.1094C74.4778 11.2005 74.7051 10.5188 75.1595 10.0644C75.6379 9.60997 76.3076 9.38275 77.1686 9.38275C78.0535 9.38275 78.7232 9.60997 79.1777 10.0644C79.656 10.5188 79.8952 11.2005 79.8952 12.1094V24.8456C79.8952 26.6872 79.0222 27.6081 77.2762 27.6081C76.4152 27.6081 75.7574 27.3689 75.303 26.8905C74.8486 26.4122 74.6213 25.7305 74.6213 24.8456V22.4418L75.1595 23.841C74.6333 25.0608 73.8799 26.0056 72.8993 26.6753C71.9186 27.345 70.7586 27.6798 69.4192 27.6798Z" fill="currentColor"/>
<path d="M52.0124 27.6799C50.96 27.6799 49.8717 27.5842 48.7476 27.3928C47.6474 27.2015 46.6428 26.8786 45.734 26.4242C45.2556 26.185 44.9088 25.886 44.6935 25.5273C44.5022 25.1446 44.4185 24.7619 44.4424 24.3792C44.4663 23.9965 44.5859 23.6497 44.8012 23.3388C45.0403 23.0279 45.3393 22.8246 45.6981 22.7289C46.0808 22.6093 46.4993 22.6452 46.9538 22.8365C47.9344 23.2431 48.8313 23.5301 49.6445 23.6976C50.4577 23.865 51.259 23.9487 52.0482 23.9487C53.0767 23.9487 53.8182 23.7932 54.2726 23.4823C54.7509 23.1474 54.9901 22.7169 54.9901 22.1907C54.9901 21.7124 54.8347 21.3536 54.5237 21.1144C54.2128 20.8753 53.7584 20.7078 53.1604 20.6122L49.3934 19.9305C47.9105 19.6674 46.7624 19.1293 45.9492 18.3161C45.1599 17.4789 44.7653 16.4146 44.7653 15.123C44.7653 13.9272 45.1001 12.8987 45.7698 12.0377C46.4395 11.1527 47.3604 10.483 48.5323 10.0286C49.7282 9.55021 51.0796 9.31104 52.5864 9.31104C53.6627 9.31104 54.6553 9.40671 55.5641 9.59805C56.473 9.78939 57.346 10.1003 58.1831 10.5308C58.6137 10.7461 58.9126 11.0331 59.0801 11.3919C59.2714 11.7506 59.3312 12.1214 59.2594 12.5041C59.2116 12.8867 59.0681 13.2335 58.8289 13.5445C58.5897 13.8554 58.2788 14.0587 57.8961 14.1544C57.5374 14.25 57.1188 14.2022 56.6404 14.0109C55.8751 13.6521 55.1695 13.401 54.5237 13.2575C53.8779 13.09 53.2561 13.0063 52.6581 13.0063C51.5818 13.0063 50.8045 13.1857 50.3262 13.5445C49.8478 13.8793 49.6086 14.3098 49.6086 14.836C49.6086 15.2426 49.7402 15.5894 50.0033 15.8765C50.2903 16.1396 50.7208 16.3189 51.2948 16.4146L55.0619 17.0963C56.6165 17.3594 57.8005 17.8855 58.6137 18.6748C59.4269 19.4402 59.8335 20.4926 59.8335 21.832C59.8335 23.6497 59.1159 25.0848 57.6809 26.1372C56.2697 27.1656 54.3802 27.6799 52.0124 27.6799Z" fill="currentColor"/>
<path d="M34.726 27.6799C32.6451 27.6799 30.8513 27.3091 29.3445 26.5677C27.8616 25.8023 26.7135 24.738 25.9003 23.3747C25.111 21.9874 24.7164 20.361 24.7164 18.4954C24.7164 16.6777 25.0991 15.0872 25.8645 13.7239C26.6298 12.3366 27.6942 11.2603 29.0575 10.495C30.4447 9.70568 32.0113 9.31104 33.7573 9.31104C35.0249 9.31104 36.173 9.5263 37.2015 9.95682C38.2299 10.3634 39.1149 10.9614 39.8563 11.7506C40.5978 12.516 41.1598 13.4608 41.5425 14.5849C41.9252 15.6851 42.1166 16.9169 42.1166 18.2802C42.1166 18.7346 41.9731 19.0814 41.686 19.3206C41.399 19.5359 40.9805 19.6435 40.4304 19.6435H29.1651V16.8451H38.206L37.632 17.3474C37.632 16.3668 37.4885 15.5536 37.2015 14.9078C36.9144 14.2381 36.4959 13.7358 35.9458 13.401C35.4196 13.0661 34.7619 12.8987 33.9726 12.8987C33.0876 12.8987 32.3342 13.102 31.7123 13.5086C31.0905 13.9152 30.6121 14.5012 30.2773 15.2666C29.9424 16.0319 29.775 16.9528 29.775 18.0291V18.3161C29.775 20.1338 30.1936 21.4732 31.0307 22.3342C31.8917 23.1953 33.1594 23.6258 34.8336 23.6258C35.4076 23.6258 36.0654 23.554 36.8068 23.4105C37.5483 23.267 38.2419 23.0398 38.8877 22.7289C39.4378 22.4658 39.9281 22.3821 40.3586 22.4778C40.7891 22.5495 41.124 22.7408 41.3631 23.0518C41.6023 23.3627 41.7339 23.7215 41.7578 24.1281C41.8056 24.5347 41.7219 24.9413 41.5067 25.3479C41.2914 25.7306 40.9326 26.0535 40.4304 26.3165C39.6172 26.771 38.6963 27.1058 37.6679 27.3211C36.6633 27.5603 35.6827 27.6799 34.726 27.6799Z" fill="currentColor"/>
<path d="M4.35221 27.6081C3.44333 27.6081 2.74972 27.3569 2.27137 26.8547C1.79301 26.3524 1.55383 25.6468 1.55383 24.7379V4.82642C1.55383 3.89363 1.79301 3.18806 2.27137 2.7097C2.77364 2.23135 3.47921 1.99217 4.38809 1.99217H13.1061C15.9284 1.99217 18.1049 2.67383 19.6356 4.03714C21.1664 5.40045 21.9318 7.30191 21.9318 9.74152C21.9318 11.3201 21.5849 12.6834 20.8913 13.8315C20.1977 14.9795 19.1932 15.8645 17.8777 16.4863C16.5861 17.1082 14.9956 17.4191 13.1061 17.4191L13.3931 16.8092H14.8641C15.8686 16.8092 16.7416 17.0603 17.483 17.5626C18.2484 18.041 18.9062 18.7824 19.4563 19.787L21.6806 23.9128C22.0155 24.5107 22.1709 25.0967 22.147 25.6707C22.1231 26.2448 21.9078 26.7112 21.5012 27.0699C21.0946 27.4287 20.4967 27.6081 19.7074 27.6081C18.9181 27.6081 18.2723 27.4406 17.7701 27.1058C17.2917 26.7709 16.8612 26.2567 16.4785 25.5631L13.0343 19.2129C12.6756 18.5433 12.2331 18.0888 11.7069 17.8496C11.2046 17.6105 10.5828 17.4909 9.84133 17.4909H7.11471V24.7379C7.11471 25.6468 6.87553 26.3524 6.39718 26.8547C5.94274 27.3569 5.26108 27.6081 4.35221 27.6081ZM7.11471 13.4727H12.1016C13.5845 13.4727 14.6966 13.1737 15.4381 12.5758C16.2034 11.9778 16.5861 11.0809 16.5861 9.88503C16.5861 8.71306 16.2034 7.8281 15.4381 7.23016C14.6966 6.63221 13.5845 6.33324 12.1016 6.33324H7.11471V13.4727Z" fill="currentColor"/>
<path d="M84.7517 60.9614C83.1013 60.9614 81.7141 60.6863 80.59 60.1362C79.4898 59.5861 78.6646 58.7848 78.1145 57.7325C77.5883 56.6801 77.3252 55.3526 77.3252 53.7502V47.0054H75.8184C75.1487 47.0054 74.6225 46.826 74.2398 46.4672C73.881 46.1084 73.7017 45.6181 73.7017 44.9963C73.7017 44.3266 73.881 43.8243 74.2398 43.4894C74.6225 43.1307 75.1487 42.9513 75.8184 42.9513H77.3252V40.2247C77.3252 39.3158 77.5644 38.6341 78.0427 38.1797C78.5211 37.7014 79.1908 37.4622 80.0518 37.4622C80.9368 37.4622 81.6065 37.7014 82.0609 38.1797C82.5153 38.6341 82.7426 39.3158 82.7426 40.2247V42.9513H86.1508C86.8205 42.9513 87.3348 43.1307 87.6935 43.4894C88.0523 43.8243 88.2317 44.3266 88.2317 44.9963C88.2317 45.6181 88.0523 46.1084 87.6935 46.4672C87.3348 46.826 86.8205 47.0054 86.1508 47.0054H82.7426V53.5349C82.7426 54.5394 82.9698 55.2929 83.4242 55.7951C83.9026 56.2974 84.656 56.5485 85.6844 56.5485C86.0432 56.5485 86.3781 56.5127 86.689 56.4409C86.9999 56.3691 87.2869 56.3213 87.55 56.2974C87.8849 56.2735 88.1599 56.3811 88.3752 56.6203C88.5905 56.8355 88.6981 57.3259 88.6981 58.0912C88.6981 58.6653 88.6024 59.1675 88.4111 59.598C88.2197 60.0286 87.8849 60.3395 87.4065 60.5308C87.0956 60.6504 86.6651 60.7461 86.115 60.8178C85.5888 60.9135 85.1343 60.9614 84.7517 60.9614Z" fill="currentColor"/>
<path d="M65.0361 60.8896C64.1511 60.8896 63.4694 60.6504 62.9911 60.1721C62.5367 59.6937 62.3094 59.0121 62.3094 58.1271V47.0054H61.0179C60.3482 47.0054 59.822 46.826 59.4393 46.4672C59.0805 46.1084 58.9012 45.6181 58.9012 44.9963C58.9012 44.3266 59.0805 43.8243 59.4393 43.4895C59.822 43.1307 60.3482 42.9513 61.0179 42.9513H63.888L62.3094 44.3864V43.2742C62.3094 40.715 62.9433 38.8016 64.2109 37.5339C65.5025 36.2663 67.392 35.5009 69.8794 35.2378L71.0275 35.1302C71.6493 35.0824 72.1396 35.178 72.4984 35.4172C72.8811 35.6564 73.1322 35.9673 73.2518 36.35C73.3714 36.7327 73.3953 37.1273 73.3236 37.5339C73.2518 37.9166 73.0844 38.2634 72.8213 38.5744C72.5821 38.8614 72.2473 39.0168 71.8167 39.0408L71.3145 39.0766C70.0229 39.1723 69.1021 39.4832 68.552 40.0094C68.0019 40.5117 67.7268 41.289 67.7268 42.3414V43.5612L67.0451 42.9513H70.274C70.9677 42.9513 71.4938 43.1307 71.8526 43.4895C72.2114 43.8243 72.3908 44.3266 72.3908 44.9963C72.3908 45.6181 72.2114 46.1084 71.8526 46.4672C71.4938 46.826 70.9677 47.0054 70.274 47.0054H67.7268V58.1271C67.7268 59.9688 66.8299 60.8896 65.0361 60.8896Z" fill="currentColor"/>
<path d="M46.9313 60.9614C45.6397 60.9614 44.4797 60.7102 43.4513 60.208C42.4228 59.7057 41.6216 59.024 41.0475 58.163C40.4735 57.3019 40.1865 56.3333 40.1865 55.257C40.1865 53.9654 40.5213 52.9489 41.191 52.2075C41.8607 51.4421 42.949 50.904 44.4558 50.593C45.9626 50.2582 47.9598 50.0907 50.4472 50.0907H52.3487V52.8891H50.4831C49.2633 52.8891 48.2707 52.9609 47.5053 53.1044C46.7639 53.224 46.2257 53.4392 45.8909 53.7502C45.5799 54.0611 45.4245 54.4916 45.4245 55.0417C45.4245 55.7114 45.6517 56.2615 46.1061 56.692C46.5845 57.1226 47.2661 57.3378 48.1511 57.3378C48.8447 57.3378 49.4546 57.1824 49.9808 56.8714C50.5309 56.5366 50.9614 56.0941 51.2724 55.544C51.5833 54.97 51.7388 54.3242 51.7388 53.6067V49.4808C51.7388 48.4285 51.4996 47.687 51.0212 47.2565C50.5429 46.8021 49.7297 46.5748 48.5816 46.5748C47.9358 46.5748 47.2303 46.6586 46.4649 46.826C45.7235 46.9695 44.8983 47.2206 43.9894 47.5794C43.4632 47.8186 42.9968 47.8784 42.5902 47.7588C42.1836 47.6153 41.8727 47.3761 41.6574 47.0412C41.4422 46.6825 41.3345 46.2998 41.3345 45.8932C41.3345 45.4627 41.4541 45.0561 41.6933 44.6734C41.9325 44.2668 42.3271 43.9678 42.8772 43.7765C44.0014 43.322 45.0538 43.0111 46.0344 42.8437C47.0389 42.6762 47.9598 42.5925 48.7969 42.5925C50.6385 42.5925 52.1454 42.8676 53.3173 43.4177C54.5132 43.9439 55.4101 44.7691 56.0081 45.8932C56.606 46.9934 56.905 48.4165 56.905 50.1625V58.1271C56.905 59.0121 56.6897 59.6937 56.2592 60.1721C55.8287 60.6504 55.2068 60.8896 54.3936 60.8896C53.5804 60.8896 52.9466 60.6504 52.4922 60.1721C52.0617 59.6937 51.8464 59.0121 51.8464 58.1271V56.7997L52.0975 57.0149C51.954 57.8281 51.6431 58.5337 51.1647 59.1317C50.7103 59.7057 50.1243 60.1601 49.4068 60.495C48.6893 60.8059 47.8641 60.9614 46.9313 60.9614Z" fill="currentColor"/>
<path d="M29.1643 60.8896C28.2554 60.8896 27.5618 60.6504 27.0834 60.172C26.6051 59.6937 26.3659 59.012 26.3659 58.1271V45.3909C26.3659 44.5059 26.5931 43.8362 27.0476 43.3818C27.5259 42.9034 28.1837 42.6642 29.0208 42.6642C29.8818 42.6642 30.5396 42.9034 30.994 43.3818C31.4484 43.8362 31.6756 44.5059 31.6756 45.3909V47.2565H31.3169C31.6039 45.8214 32.2377 44.7092 33.2183 43.9199C34.199 43.1306 35.4666 42.6882 37.0213 42.5925C37.6192 42.5447 38.0736 42.7001 38.3846 43.0589C38.7194 43.3937 38.8988 43.9558 38.9227 44.7451C38.9706 45.4865 38.8151 46.0725 38.4563 46.503C38.1215 46.9336 37.5474 47.1967 36.7342 47.2923L35.9091 47.3641C34.5458 47.4837 33.5293 47.8783 32.8596 48.548C32.2138 49.2177 31.8909 50.1864 31.8909 51.454V58.1271C31.8909 59.012 31.6517 59.6937 31.1734 60.172C30.7189 60.6504 30.0492 60.8896 29.1643 60.8896Z" fill="currentColor"/>
<path d="M14.577 60.9614C11.8504 60.9614 9.51844 60.4232 7.5811 59.3469C5.64377 58.2706 4.14891 56.7638 3.09653 54.8265C2.06806 52.8652 1.55383 50.5571 1.55383 47.9023C1.55383 45.9171 1.84085 44.1352 2.41487 42.5567C3.01282 40.9542 3.87385 39.5909 4.99799 38.4667C6.12212 37.3187 7.48543 36.4337 9.08792 35.8118C10.7143 35.19 12.544 34.8791 14.577 34.8791C15.7729 34.8791 16.9808 35.0345 18.2006 35.3455C19.4443 35.6325 20.5206 36.051 21.4295 36.6011C22.0274 36.936 22.434 37.3545 22.6493 37.8568C22.8645 38.3591 22.9243 38.8614 22.8287 39.3636C22.7569 39.8659 22.5536 40.2964 22.2188 40.6552C21.9078 41.014 21.5132 41.2412 21.0348 41.3368C20.5565 41.4325 20.0183 41.3249 19.4204 41.014C18.7029 40.5834 17.9494 40.2725 17.1602 40.0812C16.3709 39.8898 15.5696 39.7942 14.7564 39.7942C13.1539 39.7942 11.8026 40.117 10.7024 40.7628C9.62607 41.3847 8.81287 42.2936 8.26276 43.4894C7.71265 44.6853 7.4376 46.1563 7.4376 47.9023C7.4376 49.6243 7.71265 51.0953 8.26276 52.3151C8.81287 53.5349 9.62607 54.4677 10.7024 55.1135C11.8026 55.7353 13.1539 56.0463 14.7564 56.0463C15.5218 56.0463 16.2991 55.9506 17.0884 55.7592C17.9016 55.5679 18.6789 55.2689 19.4204 54.8623C20.0422 54.5514 20.5924 54.4438 21.0707 54.5394C21.573 54.6112 21.9796 54.8265 22.2905 55.1852C22.6254 55.5201 22.8287 55.9267 22.9004 56.405C22.9961 56.8834 22.9483 57.3617 22.7569 57.8401C22.5656 58.3184 22.2068 58.725 21.6806 59.0599C20.7957 59.6578 19.7074 60.1242 18.4158 60.4591C17.1243 60.7939 15.8447 60.9614 14.577 60.9614Z" fill="currentColor"/>
<path fill-rule="evenodd" clip-rule="evenodd" d="M102.111 33.2383C102.979 32.3744 104.154 31.8893 105.379 31.8893C106.603 31.8893 107.778 32.3744 108.646 33.2383L108.649 33.2406L114.49 39.0824C115.021 39.6129 115.021 40.4731 114.49 41.0036C113.96 41.5342 113.1 41.5342 112.569 41.0036L106.73 35.1642C106.729 35.1639 106.73 35.1645 106.73 35.1642C106.371 34.8076 105.885 34.6064 105.379 34.6064C104.873 34.6064 104.387 34.8066 104.028 35.1633C104.028 35.1636 104.028 35.1639 104.027 35.1642L100.5 38.6918C100.499 38.6921 100.499 38.6924 100.499 38.6927C100.142 39.0516 99.942 39.537 99.942 40.043C99.942 40.549 100.142 41.0344 100.499 41.3933C100.499 41.3936 100.499 41.393 100.499 41.3933L106.339 47.2336C106.87 47.7642 106.87 48.6244 106.339 49.1549C105.809 49.6855 104.948 49.6855 104.418 49.1549L98.5762 43.3132L98.5738 43.3108C97.7099 42.4427 97.2249 41.2678 97.2249 40.043C97.2249 38.8182 97.7099 37.6433 98.5738 36.7752L98.5762 36.7728L102.111 33.2383Z" fill="currentColor"/>
<path fill-rule="evenodd" clip-rule="evenodd" d="M110.415 35.0067C110.945 35.5373 110.945 36.3974 110.415 36.928L107.698 39.6451C107.167 40.1756 106.307 40.1756 105.776 39.6451C105.246 39.1145 105.246 38.2544 105.776 37.7238L108.494 35.0067C109.024 34.4762 109.884 34.4762 110.415 35.0067Z" fill="currentColor"/>
<path fill-rule="evenodd" clip-rule="evenodd" d="M124 48.5922C124.531 49.1227 124.531 49.9829 124 50.5135L121.283 53.2306C120.753 53.7611 119.892 53.7611 119.362 53.2306C118.831 52.7 118.831 51.8398 119.362 51.3093L122.079 48.5922C122.61 48.0617 123.47 48.0617 124 48.5922Z" fill="currentColor"/>
<path fill-rule="evenodd" clip-rule="evenodd" d="M118.003 44.5166C118.534 43.986 119.394 43.986 119.925 44.5166L125.766 50.3583C127.574 52.1659 127.574 55.0911 125.766 56.8986L122.234 60.4308C120.427 62.2384 117.501 62.2384 115.694 60.4308L109.852 54.5891C109.322 54.0586 109.322 53.1984 109.852 52.6678C110.383 52.1373 111.243 52.1373 111.773 52.6678L117.615 58.5096C118.362 59.2561 119.566 59.2561 120.313 58.5096L123.845 54.9774C124.592 54.2309 124.592 53.0261 123.845 52.2796L118.003 46.4378C117.473 45.9073 117.473 45.0471 118.003 44.5166Z" fill="currentColor"/>
<path fill-rule="evenodd" clip-rule="evenodd" d="M118.259 33.4102C119.232 32.4374 120.552 31.891 121.928 31.8911C123.304 31.8913 124.623 32.4381 125.596 33.4112C126.569 34.3843 127.115 35.7039 127.115 37.0799C127.115 38.4559 126.568 39.7754 125.595 40.7483L107.463 58.8833L107.461 58.8849C106.989 59.3558 106.408 59.7036 105.77 59.8977L99.8517 61.6923C99.4994 61.7982 99.125 61.8067 98.7682 61.717C98.4115 61.6273 98.0856 61.4427 97.8253 61.1828C97.5649 60.9229 97.3798 60.5974 97.2896 60.2407C97.1993 59.8841 97.2073 59.5097 97.3126 59.1572L97.3143 59.1516L99.1089 53.2392L99.11 53.2356C99.3057 52.5973 99.6552 52.0169 100.128 51.5453C100.128 51.5449 100.129 51.5446 100.129 51.5442L118.259 33.4102ZM120.18 35.3318C120.18 35.3318 120.18 35.3317 120.18 35.3318L102.049 53.4668L102.047 53.4683C101.89 53.6251 101.774 53.8182 101.708 54.0305C101.708 54.031 101.708 54.0316 101.708 54.0321L100.284 58.7218L104.979 57.2982C105.191 57.2336 105.385 57.118 105.542 56.9615C105.542 56.9612 105.542 56.9619 105.542 56.9615L123.674 38.827C124.137 38.3636 124.398 37.7349 124.398 37.0796C124.398 36.4242 124.138 35.7957 123.674 35.3322C123.211 34.8687 122.583 34.6083 121.927 34.6082C121.272 34.6082 120.643 34.8686 120.18 35.3318Z" fill="currentColor"/>
<path fill-rule="evenodd" clip-rule="evenodd" d="M115.286 36.3653C115.817 35.8347 116.677 35.8347 117.208 36.3653L122.642 41.7995C123.172 42.33 123.172 43.1902 122.642 43.7207C122.111 44.2513 121.251 44.2513 120.72 43.7207L115.286 38.2865C114.756 37.756 114.756 36.8958 115.286 36.3653Z" fill="currentColor"/>
</svg>
